<mxfile host="65bd71144e">
    <diagram id="szhzvAD1hp_0Q1N5dI78" name="Page-1">
        <mxGraphModel dx="1982" dy="755" grid="0" gridSize="10" guides="1" tooltips="1" connect="1" arrows="1" fold="1" page="1" pageScale="1" pageWidth="850" pageHeight="1100" background="#ffffff" math="0" shadow="0">
            <root>
                <mxCell id="0"/>
                <mxCell id="1" parent="0"/>
                <mxCell id="5" value="" style="endArrow=classic;html=1;strokeColor=#000000;fontColor=#000000;strokeWidth=2;" parent="1" edge="1">
                    <mxGeometry width="50" height="50" relative="1" as="geometry">
                        <mxPoint x="165" y="200" as="sourcePoint"/>
                        <mxPoint x="245" y="200" as="targetPoint"/>
                    </mxGeometry>
                </mxCell>
                <mxCell id="6" value="s.push(1)" style="text;html=1;strokeColor=none;fillColor=none;align=center;verticalAlign=middle;whiteSpace=wrap;rounded=0;fontColor=#000000;fontStyle=0" parent="1" vertex="1">
                    <mxGeometry x="171" y="180" width="60" height="20" as="geometry"/>
                </mxCell>
                <mxCell id="7" value="" style="endArrow=none;html=1;strokeColor=#000000;fontColor=#000000;strokeWidth=2;" parent="1" edge="1">
                    <mxGeometry width="50" height="50" relative="1" as="geometry">
                        <mxPoint x="547.66" y="512.27" as="sourcePoint"/>
                        <mxPoint x="547.66" y="482.27000000000004" as="targetPoint"/>
                    </mxGeometry>
                </mxCell>
                <mxCell id="8" value="" style="endArrow=none;html=1;strokeColor=#000000;fontColor=#000000;strokeWidth=2;" parent="1" edge="1">
                    <mxGeometry width="50" height="50" relative="1" as="geometry">
                        <mxPoint x="587.66" y="512.27" as="sourcePoint"/>
                        <mxPoint x="587.66" y="482.27000000000004" as="targetPoint"/>
                    </mxGeometry>
                </mxCell>
                <mxCell id="9" value="" style="endArrow=none;html=1;strokeColor=#000000;fontColor=#000000;strokeWidth=2;" parent="1" edge="1">
                    <mxGeometry width="50" height="50" relative="1" as="geometry">
                        <mxPoint x="547.66" y="512.27" as="sourcePoint"/>
                        <mxPoint x="587.66" y="512.27" as="targetPoint"/>
                    </mxGeometry>
                </mxCell>
                <mxCell id="10" value="" style="endArrow=classic;html=1;strokeColor=#000000;fontColor=#000000;strokeWidth=2;" parent="1" edge="1">
                    <mxGeometry width="50" height="50" relative="1" as="geometry">
                        <mxPoint x="320" y="200" as="sourcePoint"/>
                        <mxPoint x="400" y="200" as="targetPoint"/>
                    </mxGeometry>
                </mxCell>
                <mxCell id="11" value="s.push(4)" style="text;html=1;strokeColor=none;fillColor=none;align=center;verticalAlign=middle;whiteSpace=wrap;rounded=0;fontColor=#000000;" parent="1" vertex="1">
                    <mxGeometry x="326" y="180" width="60" height="20" as="geometry"/>
                </mxCell>
                <mxCell id="12" value="" style="endArrow=none;html=1;strokeColor=#000000;fontColor=#000000;strokeWidth=2;" parent="1" edge="1">
                    <mxGeometry width="50" height="50" relative="1" as="geometry">
                        <mxPoint x="415" y="219.73000000000002" as="sourcePoint"/>
                        <mxPoint x="415" y="159.73000000000002" as="targetPoint"/>
                    </mxGeometry>
                </mxCell>
                <mxCell id="13" value="" style="endArrow=none;html=1;strokeColor=#000000;fontColor=#000000;strokeWidth=2;" parent="1" edge="1">
                    <mxGeometry width="50" height="50" relative="1" as="geometry">
                        <mxPoint x="455" y="219.73000000000002" as="sourcePoint"/>
                        <mxPoint x="455" y="159.73000000000002" as="targetPoint"/>
                    </mxGeometry>
                </mxCell>
                <mxCell id="14" value="" style="endArrow=none;html=1;strokeColor=#000000;fontColor=#000000;strokeWidth=2;" parent="1" edge="1">
                    <mxGeometry width="50" height="50" relative="1" as="geometry">
                        <mxPoint x="415" y="219.73000000000002" as="sourcePoint"/>
                        <mxPoint x="455" y="219.73000000000002" as="targetPoint"/>
                    </mxGeometry>
                </mxCell>
                <mxCell id="15" value="" style="endArrow=classic;html=1;strokeColor=#000000;fontColor=#000000;strokeWidth=2;" parent="1" edge="1">
                    <mxGeometry width="50" height="50" relative="1" as="geometry">
                        <mxPoint x="475" y="200" as="sourcePoint"/>
                        <mxPoint x="555" y="200" as="targetPoint"/>
                    </mxGeometry>
                </mxCell>
                <mxCell id="16" value="s.push(7)" style="text;html=1;strokeColor=none;fillColor=none;align=center;verticalAlign=middle;whiteSpace=wrap;rounded=0;fontColor=#000000;" parent="1" vertex="1">
                    <mxGeometry x="481" y="180" width="60" height="20" as="geometry"/>
                </mxCell>
                <mxCell id="17" value="" style="endArrow=none;html=1;strokeColor=#000000;fontColor=#000000;strokeWidth=2;" parent="1" edge="1">
                    <mxGeometry width="50" height="50" relative="1" as="geometry">
                        <mxPoint x="565" y="220" as="sourcePoint"/>
                        <mxPoint x="565" y="130" as="targetPoint"/>
                    </mxGeometry>
                </mxCell>
                <mxCell id="18" value="" style="endArrow=none;html=1;strokeColor=#000000;fontColor=#000000;strokeWidth=2;" parent="1" edge="1">
                    <mxGeometry width="50" height="50" relative="1" as="geometry">
                        <mxPoint x="605" y="220" as="sourcePoint"/>
                        <mxPoint x="605" y="130" as="targetPoint"/>
                    </mxGeometry>
                </mxCell>
                <mxCell id="19" value="" style="endArrow=none;html=1;strokeColor=#000000;fontColor=#000000;strokeWidth=2;" parent="1" edge="1">
                    <mxGeometry width="50" height="50" relative="1" as="geometry">
                        <mxPoint x="565" y="220" as="sourcePoint"/>
                        <mxPoint x="605" y="220" as="targetPoint"/>
                    </mxGeometry>
                </mxCell>
                <mxCell id="20" value="" style="endArrow=classic;html=1;strokeColor=#000000;fontColor=#000000;strokeWidth=2;" parent="1" edge="1">
                    <mxGeometry width="50" height="50" relative="1" as="geometry">
                        <mxPoint x="625" y="200" as="sourcePoint"/>
                        <mxPoint x="705" y="200" as="targetPoint"/>
                    </mxGeometry>
                </mxCell>
                <mxCell id="21" value="s.top()" style="text;html=1;strokeColor=none;fillColor=none;align=center;verticalAlign=middle;whiteSpace=wrap;rounded=0;fontColor=#000000;" parent="1" vertex="1">
                    <mxGeometry x="631" y="180" width="60" height="20" as="geometry"/>
                </mxCell>
                <mxCell id="23" value="1" style="text;html=1;strokeColor=none;fillColor=#E6E6E6;align=center;verticalAlign=middle;whiteSpace=wrap;rounded=0;fontColor=#000000;fontStyle=1" parent="1" vertex="1">
                    <mxGeometry x="416" y="189" width="38" height="30" as="geometry"/>
                </mxCell>
                <mxCell id="24" value="4" style="text;html=1;strokeColor=none;fillColor=#66FFFF;align=center;verticalAlign=middle;whiteSpace=wrap;rounded=0;fontColor=#000000;fontStyle=1" parent="1" vertex="1">
                    <mxGeometry x="416" y="160" width="38" height="30" as="geometry"/>
                </mxCell>
                <mxCell id="25" value="" style="endArrow=none;html=1;strokeColor=#000000;fontColor=#000000;strokeWidth=2;dashed=1;" parent="1" edge="1">
                    <mxGeometry width="50" height="50" relative="1" as="geometry">
                        <mxPoint x="415" y="189.92000000000007" as="sourcePoint"/>
                        <mxPoint x="455" y="189.92000000000007" as="targetPoint"/>
                    </mxGeometry>
                </mxCell>
                <mxCell id="26" value="1" style="text;html=1;strokeColor=none;fillColor=#E6E6E6;align=center;verticalAlign=middle;whiteSpace=wrap;rounded=0;fontColor=#000000;fontStyle=1" parent="1" vertex="1">
                    <mxGeometry x="566" y="189" width="38" height="30" as="geometry"/>
                </mxCell>
                <mxCell id="27" value="4" style="text;html=1;strokeColor=none;fillColor=#E6E6E6;align=center;verticalAlign=middle;whiteSpace=wrap;rounded=0;fontColor=#000000;fontStyle=1" parent="1" vertex="1">
                    <mxGeometry x="566" y="160" width="38" height="30" as="geometry"/>
                </mxCell>
                <mxCell id="28" value="7" style="text;html=1;strokeColor=none;fillColor=#66FFFF;align=center;verticalAlign=middle;whiteSpace=wrap;rounded=0;fontColor=#000000;fontStyle=1" parent="1" vertex="1">
                    <mxGeometry x="566" y="130" width="38" height="30" as="geometry"/>
                </mxCell>
                <mxCell id="29" value="" style="endArrow=none;html=1;strokeColor=#000000;fontColor=#000000;strokeWidth=2;dashed=1;" parent="1" edge="1">
                    <mxGeometry width="50" height="50" relative="1" as="geometry">
                        <mxPoint x="565" y="190" as="sourcePoint"/>
                        <mxPoint x="605" y="190" as="targetPoint"/>
                    </mxGeometry>
                </mxCell>
                <mxCell id="30" value="" style="endArrow=none;html=1;strokeColor=#000000;fontColor=#000000;strokeWidth=2;dashed=1;" parent="1" edge="1">
                    <mxGeometry width="50" height="50" relative="1" as="geometry">
                        <mxPoint x="565" y="160" as="sourcePoint"/>
                        <mxPoint x="605" y="160" as="targetPoint"/>
                    </mxGeometry>
                </mxCell>
                <mxCell id="31" value="7" style="text;html=1;strokeColor=#66FFFF;fillColor=none;align=center;verticalAlign=middle;whiteSpace=wrap;rounded=0;fontColor=#000000;fontStyle=1;fontSize=14;labelBorderColor=none;strokeWidth=3;" parent="1" vertex="1">
                    <mxGeometry x="711" y="184" width="30" height="30" as="geometry"/>
                </mxCell>
                <mxCell id="35" value="" style="endArrow=classic;html=1;strokeColor=#000000;fontColor=#000000;strokeWidth=2;" parent="1" edge="1">
                    <mxGeometry width="50" height="50" relative="1" as="geometry">
                        <mxPoint x="165" y="357.07" as="sourcePoint"/>
                        <mxPoint x="245" y="357.07" as="targetPoint"/>
                    </mxGeometry>
                </mxCell>
                <mxCell id="36" value="s.pop()" style="text;html=1;strokeColor=none;fillColor=none;align=center;verticalAlign=middle;whiteSpace=wrap;rounded=0;fontColor=#000000;" parent="1" vertex="1">
                    <mxGeometry x="171" y="337.07" width="60" height="20" as="geometry"/>
                </mxCell>
                <mxCell id="42" value="" style="endArrow=none;html=1;strokeColor=#000000;fontColor=#000000;strokeWidth=2;" parent="1" edge="1">
                    <mxGeometry width="50" height="50" relative="1" as="geometry">
                        <mxPoint x="259.78" y="377.07" as="sourcePoint"/>
                        <mxPoint x="259.78" y="317.07" as="targetPoint"/>
                    </mxGeometry>
                </mxCell>
                <mxCell id="43" value="" style="endArrow=none;html=1;strokeColor=#000000;fontColor=#000000;strokeWidth=2;" parent="1" edge="1">
                    <mxGeometry width="50" height="50" relative="1" as="geometry">
                        <mxPoint x="299.78" y="377.07" as="sourcePoint"/>
                        <mxPoint x="299.78" y="317.07" as="targetPoint"/>
                    </mxGeometry>
                </mxCell>
                <mxCell id="44" value="" style="endArrow=none;html=1;strokeColor=#000000;fontColor=#000000;strokeWidth=2;" parent="1" edge="1">
                    <mxGeometry width="50" height="50" relative="1" as="geometry">
                        <mxPoint x="259.78" y="377.07" as="sourcePoint"/>
                        <mxPoint x="299.78" y="377.07" as="targetPoint"/>
                    </mxGeometry>
                </mxCell>
                <mxCell id="45" value="1" style="text;html=1;strokeColor=none;fillColor=#E6E6E6;align=center;verticalAlign=middle;whiteSpace=wrap;rounded=0;fontColor=#000000;fontStyle=1" parent="1" vertex="1">
                    <mxGeometry x="261" y="346.07" width="38" height="30" as="geometry"/>
                </mxCell>
                <mxCell id="46" value="4" style="text;html=1;strokeColor=none;fillColor=#66FFFF;align=center;verticalAlign=middle;whiteSpace=wrap;rounded=0;fontColor=#000000;fontStyle=1" parent="1" vertex="1">
                    <mxGeometry x="261" y="317.34" width="38" height="30" as="geometry"/>
                </mxCell>
                <mxCell id="47" value="" style="endArrow=none;html=1;strokeColor=#000000;fontColor=#000000;strokeWidth=2;dashed=1;" parent="1" edge="1">
                    <mxGeometry width="50" height="50" relative="1" as="geometry">
                        <mxPoint x="259.78" y="347.26000000000005" as="sourcePoint"/>
                        <mxPoint x="299.78" y="347.26000000000005" as="targetPoint"/>
                    </mxGeometry>
                </mxCell>
                <mxCell id="48" value="" style="endArrow=classic;html=1;strokeColor=#000000;fontColor=#000000;strokeWidth=2;" parent="1" edge="1">
                    <mxGeometry width="50" height="50" relative="1" as="geometry">
                        <mxPoint x="316" y="356.51000000000005" as="sourcePoint"/>
                        <mxPoint x="396" y="356.51000000000005" as="targetPoint"/>
                    </mxGeometry>
                </mxCell>
                <mxCell id="49" value="s.pop()" style="text;html=1;strokeColor=none;fillColor=none;align=center;verticalAlign=middle;whiteSpace=wrap;rounded=0;fontColor=#000000;" parent="1" vertex="1">
                    <mxGeometry x="322" y="336.51" width="60" height="20" as="geometry"/>
                </mxCell>
                <mxCell id="50" value="" style="endArrow=classic;html=1;strokeColor=#000000;fontColor=#000000;strokeWidth=2;" parent="1" edge="1">
                    <mxGeometry width="50" height="50" relative="1" as="geometry">
                        <mxPoint x="625" y="357.34" as="sourcePoint"/>
                        <mxPoint x="705" y="357.34" as="targetPoint"/>
                    </mxGeometry>
                </mxCell>
                <mxCell id="51" value="s.top()" style="text;html=1;strokeColor=none;fillColor=none;align=center;verticalAlign=middle;whiteSpace=wrap;rounded=0;fontColor=#000000;" parent="1" vertex="1">
                    <mxGeometry x="631" y="337.34" width="60" height="20" as="geometry"/>
                </mxCell>
                <mxCell id="57" value="" style="endArrow=classic;html=1;strokeColor=#000000;fontColor=#000000;strokeWidth=2;" parent="1" edge="1">
                    <mxGeometry width="50" height="50" relative="1" as="geometry">
                        <mxPoint x="470.99999999999994" y="357.34" as="sourcePoint"/>
                        <mxPoint x="550.9999999999999" y="357.34" as="targetPoint"/>
                    </mxGeometry>
                </mxCell>
                <mxCell id="58" value="s.push(5)" style="text;html=1;strokeColor=none;fillColor=none;align=center;verticalAlign=middle;whiteSpace=wrap;rounded=0;fontColor=#000000;" parent="1" vertex="1">
                    <mxGeometry x="476.99999999999994" y="337.34" width="60" height="20" as="geometry"/>
                </mxCell>
                <mxCell id="59" value="" style="endArrow=none;html=1;strokeColor=#000000;fontColor=#000000;strokeWidth=2;" parent="1" edge="1">
                    <mxGeometry width="50" height="50" relative="1" as="geometry">
                        <mxPoint x="565.9999999999999" y="377.34" as="sourcePoint"/>
                        <mxPoint x="565.9999999999999" y="317.34" as="targetPoint"/>
                    </mxGeometry>
                </mxCell>
                <mxCell id="60" value="" style="endArrow=none;html=1;strokeColor=#000000;fontColor=#000000;strokeWidth=2;" parent="1" edge="1">
                    <mxGeometry width="50" height="50" relative="1" as="geometry">
                        <mxPoint x="605.9999999999999" y="377.34" as="sourcePoint"/>
                        <mxPoint x="605.9999999999999" y="317.34" as="targetPoint"/>
                    </mxGeometry>
                </mxCell>
                <mxCell id="61" value="" style="endArrow=none;html=1;strokeColor=#000000;fontColor=#000000;strokeWidth=2;" parent="1" edge="1">
                    <mxGeometry width="50" height="50" relative="1" as="geometry">
                        <mxPoint x="565.9999999999999" y="377.34" as="sourcePoint"/>
                        <mxPoint x="605.9999999999999" y="377.34" as="targetPoint"/>
                    </mxGeometry>
                </mxCell>
                <mxCell id="62" value="1" style="text;html=1;strokeColor=none;fillColor=#E6E6E6;align=center;verticalAlign=middle;whiteSpace=wrap;rounded=0;fontColor=#000000;fontStyle=1" parent="1" vertex="1">
                    <mxGeometry x="567" y="346.07" width="38" height="30" as="geometry"/>
                </mxCell>
                <mxCell id="63" value="5" style="text;html=1;strokeColor=none;fillColor=#66FFFF;align=center;verticalAlign=middle;whiteSpace=wrap;rounded=0;fontColor=#000000;fontStyle=1" parent="1" vertex="1">
                    <mxGeometry x="567" y="317.60999999999996" width="38" height="30" as="geometry"/>
                </mxCell>
                <mxCell id="64" value="" style="endArrow=none;html=1;strokeColor=#000000;fontColor=#000000;strokeWidth=2;dashed=1;" parent="1" edge="1">
                    <mxGeometry width="50" height="50" relative="1" as="geometry">
                        <mxPoint x="565.9999999999999" y="347.53000000000003" as="sourcePoint"/>
                        <mxPoint x="605.9999999999999" y="347.53000000000003" as="targetPoint"/>
                    </mxGeometry>
                </mxCell>
                <mxCell id="65" value="stack&amp;lt;int&amp;gt; s" style="text;html=1;strokeColor=none;fillColor=none;align=center;verticalAlign=middle;whiteSpace=wrap;rounded=0;fontColor=#000000;fontStyle=1;fontSize=13;" vertex="1" parent="1">
                    <mxGeometry x="76" y="189" width="85" height="20" as="geometry"/>
                </mxCell>
                <mxCell id="66" value="1" style="text;html=1;strokeColor=none;fillColor=#66FFFF;align=center;verticalAlign=middle;whiteSpace=wrap;rounded=0;fontColor=#000000;fontStyle=1;labelBackgroundColor=none;" vertex="1" parent="1">
                    <mxGeometry x="548.66" y="482.5" width="38" height="29" as="geometry"/>
                </mxCell>
                <mxCell id="69" value="5" style="text;html=1;strokeColor=#66FFFF;fillColor=none;align=center;verticalAlign=middle;whiteSpace=wrap;rounded=0;fontColor=#000000;fontStyle=1;fontSize=14;labelBorderColor=none;strokeWidth=3;" vertex="1" parent="1">
                    <mxGeometry x="711" y="342.07" width="30" height="30" as="geometry"/>
                </mxCell>
                <mxCell id="72" value="" style="endArrow=none;html=1;strokeColor=#000000;fontColor=#000000;strokeWidth=2;" edge="1" parent="1">
                    <mxGeometry width="50" height="50" relative="1" as="geometry">
                        <mxPoint x="257.99999999999983" y="219.99999999999997" as="sourcePoint"/>
                        <mxPoint x="257.99999999999983" y="189.99999999999997" as="targetPoint"/>
                    </mxGeometry>
                </mxCell>
                <mxCell id="73" value="" style="endArrow=none;html=1;strokeColor=#000000;fontColor=#000000;strokeWidth=2;" edge="1" parent="1">
                    <mxGeometry width="50" height="50" relative="1" as="geometry">
                        <mxPoint x="297.99999999999994" y="219.99999999999997" as="sourcePoint"/>
                        <mxPoint x="297.99999999999994" y="189.99999999999997" as="targetPoint"/>
                    </mxGeometry>
                </mxCell>
                <mxCell id="74" value="" style="endArrow=none;html=1;strokeColor=#000000;fontColor=#000000;strokeWidth=2;" edge="1" parent="1">
                    <mxGeometry width="50" height="50" relative="1" as="geometry">
                        <mxPoint x="257.99999999999983" y="219.99999999999997" as="sourcePoint"/>
                        <mxPoint x="297.99999999999994" y="219.99999999999997" as="targetPoint"/>
                    </mxGeometry>
                </mxCell>
                <mxCell id="75" value="1" style="text;html=1;strokeColor=none;fillColor=#66FFFF;align=center;verticalAlign=middle;whiteSpace=wrap;rounded=0;fontColor=#000000;fontStyle=1;labelBackgroundColor=none;" vertex="1" parent="1">
                    <mxGeometry x="258.99999999999994" y="190.00000000000003" width="38" height="29" as="geometry"/>
                </mxCell>
                <mxCell id="76" value="" style="endArrow=none;html=1;strokeColor=#000000;fontColor=#000000;strokeWidth=2;" edge="1" parent="1">
                    <mxGeometry width="50" height="50" relative="1" as="geometry">
                        <mxPoint x="110.66" y="377" as="sourcePoint"/>
                        <mxPoint x="110.66" y="287" as="targetPoint"/>
                    </mxGeometry>
                </mxCell>
                <mxCell id="77" value="" style="endArrow=none;html=1;strokeColor=#000000;fontColor=#000000;strokeWidth=2;" edge="1" parent="1">
                    <mxGeometry width="50" height="50" relative="1" as="geometry">
                        <mxPoint x="150.66" y="377" as="sourcePoint"/>
                        <mxPoint x="150.66" y="287" as="targetPoint"/>
                    </mxGeometry>
                </mxCell>
                <mxCell id="78" value="" style="endArrow=none;html=1;strokeColor=#000000;fontColor=#000000;strokeWidth=2;" edge="1" parent="1">
                    <mxGeometry width="50" height="50" relative="1" as="geometry">
                        <mxPoint x="110.66" y="377" as="sourcePoint"/>
                        <mxPoint x="150.66" y="377" as="targetPoint"/>
                    </mxGeometry>
                </mxCell>
                <mxCell id="79" value="1" style="text;html=1;strokeColor=none;fillColor=#E6E6E6;align=center;verticalAlign=middle;whiteSpace=wrap;rounded=0;fontColor=#000000;fontStyle=1" vertex="1" parent="1">
                    <mxGeometry x="111.66" y="346" width="38" height="30" as="geometry"/>
                </mxCell>
                <mxCell id="80" value="4" style="text;html=1;strokeColor=none;fillColor=#E6E6E6;align=center;verticalAlign=middle;whiteSpace=wrap;rounded=0;fontColor=#000000;fontStyle=1" vertex="1" parent="1">
                    <mxGeometry x="111.66" y="317" width="38" height="30" as="geometry"/>
                </mxCell>
                <mxCell id="81" value="7" style="text;html=1;strokeColor=none;fillColor=#66FFFF;align=center;verticalAlign=middle;whiteSpace=wrap;rounded=0;fontColor=#000000;fontStyle=1" vertex="1" parent="1">
                    <mxGeometry x="111.66" y="287" width="38" height="30" as="geometry"/>
                </mxCell>
                <mxCell id="82" value="" style="endArrow=none;html=1;strokeColor=#000000;fontColor=#000000;strokeWidth=2;dashed=1;" edge="1" parent="1">
                    <mxGeometry width="50" height="50" relative="1" as="geometry">
                        <mxPoint x="110.66" y="347" as="sourcePoint"/>
                        <mxPoint x="150.66" y="347" as="targetPoint"/>
                    </mxGeometry>
                </mxCell>
                <mxCell id="83" value="" style="endArrow=none;html=1;strokeColor=#000000;fontColor=#000000;strokeWidth=2;dashed=1;" edge="1" parent="1">
                    <mxGeometry width="50" height="50" relative="1" as="geometry">
                        <mxPoint x="110.66" y="317" as="sourcePoint"/>
                        <mxPoint x="150.66" y="317" as="targetPoint"/>
                    </mxGeometry>
                </mxCell>
                <mxCell id="84" value="" style="endArrow=none;html=1;strokeColor=#000000;fontColor=#000000;strokeWidth=2;" edge="1" parent="1">
                    <mxGeometry width="50" height="50" relative="1" as="geometry">
                        <mxPoint x="111.66" y="514.27" as="sourcePoint"/>
                        <mxPoint x="111.66" y="454.27" as="targetPoint"/>
                    </mxGeometry>
                </mxCell>
                <mxCell id="85" value="" style="endArrow=none;html=1;strokeColor=#000000;fontColor=#000000;strokeWidth=2;" edge="1" parent="1">
                    <mxGeometry width="50" height="50" relative="1" as="geometry">
                        <mxPoint x="151.66" y="514.27" as="sourcePoint"/>
                        <mxPoint x="151.66" y="454.27" as="targetPoint"/>
                    </mxGeometry>
                </mxCell>
                <mxCell id="86" value="" style="endArrow=none;html=1;strokeColor=#000000;fontColor=#000000;strokeWidth=2;" edge="1" parent="1">
                    <mxGeometry width="50" height="50" relative="1" as="geometry">
                        <mxPoint x="111.66" y="514.27" as="sourcePoint"/>
                        <mxPoint x="151.66" y="514.27" as="targetPoint"/>
                    </mxGeometry>
                </mxCell>
                <mxCell id="87" value="1" style="text;html=1;strokeColor=none;fillColor=#E6E6E6;align=center;verticalAlign=middle;whiteSpace=wrap;rounded=0;fontColor=#000000;fontStyle=1" vertex="1" parent="1">
                    <mxGeometry x="112.66" y="483" width="38" height="30" as="geometry"/>
                </mxCell>
                <mxCell id="88" value="5" style="text;html=1;strokeColor=none;fillColor=#66FFFF;align=center;verticalAlign=middle;whiteSpace=wrap;rounded=0;fontColor=#000000;fontStyle=1" vertex="1" parent="1">
                    <mxGeometry x="112.66" y="454.53999999999996" width="38" height="30" as="geometry"/>
                </mxCell>
                <mxCell id="89" value="" style="endArrow=none;html=1;strokeColor=#000000;fontColor=#000000;strokeWidth=2;dashed=1;" edge="1" parent="1">
                    <mxGeometry width="50" height="50" relative="1" as="geometry">
                        <mxPoint x="111.66" y="484.46000000000004" as="sourcePoint"/>
                        <mxPoint x="151.66" y="484.46000000000004" as="targetPoint"/>
                    </mxGeometry>
                </mxCell>
                <mxCell id="93" value="" style="endArrow=classic;html=1;strokeColor=#000000;fontColor=#000000;strokeWidth=2;" edge="1" parent="1">
                    <mxGeometry width="50" height="50" relative="1" as="geometry">
                        <mxPoint x="165.66" y="493.72999999999996" as="sourcePoint"/>
                        <mxPoint x="245.66" y="493.72999999999996" as="targetPoint"/>
                    </mxGeometry>
                </mxCell>
                <mxCell id="94" value="s.size()" style="text;html=1;strokeColor=none;fillColor=none;align=center;verticalAlign=middle;whiteSpace=wrap;rounded=0;fontColor=#000000;" vertex="1" parent="1">
                    <mxGeometry x="171.66" y="473.72999999999996" width="60" height="20" as="geometry"/>
                </mxCell>
                <mxCell id="103" value="" style="endArrow=classic;html=1;strokeColor=#000000;fontColor=#000000;strokeWidth=2;" edge="1" parent="1">
                    <mxGeometry width="50" height="50" relative="1" as="geometry">
                        <mxPoint x="451.66" y="491.99999999999983" as="sourcePoint"/>
                        <mxPoint x="531.66" y="491.99999999999983" as="targetPoint"/>
                    </mxGeometry>
                </mxCell>
                <mxCell id="104" value="s.pop()" style="text;html=1;strokeColor=none;fillColor=none;align=center;verticalAlign=middle;whiteSpace=wrap;rounded=0;fontColor=#000000;" vertex="1" parent="1">
                    <mxGeometry x="457.66" y="471.99999999999994" width="60" height="20" as="geometry"/>
                </mxCell>
                <mxCell id="107" value="" style="endArrow=none;html=1;strokeColor=#000000;fontColor=#000000;strokeWidth=2;" edge="1" parent="1">
                    <mxGeometry width="50" height="50" relative="1" as="geometry">
                        <mxPoint x="392.66" y="511.9999999999998" as="sourcePoint"/>
                        <mxPoint x="392.66" y="451.99999999999994" as="targetPoint"/>
                    </mxGeometry>
                </mxCell>
                <mxCell id="108" value="" style="endArrow=none;html=1;strokeColor=#000000;fontColor=#000000;strokeWidth=2;" edge="1" parent="1">
                    <mxGeometry width="50" height="50" relative="1" as="geometry">
                        <mxPoint x="432.66" y="511.9999999999998" as="sourcePoint"/>
                        <mxPoint x="432.66" y="451.99999999999994" as="targetPoint"/>
                    </mxGeometry>
                </mxCell>
                <mxCell id="109" value="" style="endArrow=none;html=1;strokeColor=#000000;fontColor=#000000;strokeWidth=2;" edge="1" parent="1">
                    <mxGeometry width="50" height="50" relative="1" as="geometry">
                        <mxPoint x="392.66" y="511.9999999999998" as="sourcePoint"/>
                        <mxPoint x="432.66" y="511.9999999999998" as="targetPoint"/>
                    </mxGeometry>
                </mxCell>
                <mxCell id="110" value="1" style="text;html=1;strokeColor=none;fillColor=#E6E6E6;align=center;verticalAlign=middle;whiteSpace=wrap;rounded=0;fontColor=#000000;fontStyle=1" vertex="1" parent="1">
                    <mxGeometry x="393.66" y="480.72999999999996" width="38" height="30" as="geometry"/>
                </mxCell>
                <mxCell id="111" value="5" style="text;html=1;strokeColor=none;fillColor=#66FFFF;align=center;verticalAlign=middle;whiteSpace=wrap;rounded=0;fontColor=#000000;fontStyle=1" vertex="1" parent="1">
                    <mxGeometry x="393.66" y="452.2699999999999" width="38" height="30" as="geometry"/>
                </mxCell>
                <mxCell id="112" value="" style="endArrow=none;html=1;strokeColor=#000000;fontColor=#000000;strokeWidth=2;dashed=1;" edge="1" parent="1">
                    <mxGeometry width="50" height="50" relative="1" as="geometry">
                        <mxPoint x="392.66" y="482.1899999999999" as="sourcePoint"/>
                        <mxPoint x="432.66" y="482.1899999999999" as="targetPoint"/>
                    </mxGeometry>
                </mxCell>
                <mxCell id="121" value="2" style="text;html=1;strokeColor=#66FFFF;fillColor=none;align=center;verticalAlign=middle;whiteSpace=wrap;rounded=0;fontColor=#000000;fontStyle=1;fontSize=14;labelBorderColor=none;strokeWidth=3;" vertex="1" parent="1">
                    <mxGeometry x="252.66" y="477.15999999999997" width="30" height="30" as="geometry"/>
                </mxCell>
                <mxCell id="122" value="" style="endArrow=none;html=1;strokeColor=#000000;fontColor=#000000;strokeWidth=2;" edge="1" parent="1">
                    <mxGeometry width="50" height="50" relative="1" as="geometry">
                        <mxPoint x="414.72" y="375.79" as="sourcePoint"/>
                        <mxPoint x="414.72" y="345.79" as="targetPoint"/>
                    </mxGeometry>
                </mxCell>
                <mxCell id="123" value="" style="endArrow=none;html=1;strokeColor=#000000;fontColor=#000000;strokeWidth=2;" edge="1" parent="1">
                    <mxGeometry width="50" height="50" relative="1" as="geometry">
                        <mxPoint x="454.72" y="375.79" as="sourcePoint"/>
                        <mxPoint x="454.72" y="345.79" as="targetPoint"/>
                    </mxGeometry>
                </mxCell>
                <mxCell id="124" value="" style="endArrow=none;html=1;strokeColor=#000000;fontColor=#000000;strokeWidth=2;" edge="1" parent="1">
                    <mxGeometry width="50" height="50" relative="1" as="geometry">
                        <mxPoint x="414.72" y="375.79" as="sourcePoint"/>
                        <mxPoint x="454.72" y="375.79" as="targetPoint"/>
                    </mxGeometry>
                </mxCell>
                <mxCell id="125" value="1" style="text;html=1;strokeColor=none;fillColor=#66FFFF;align=center;verticalAlign=middle;whiteSpace=wrap;rounded=0;fontColor=#000000;fontStyle=1;labelBackgroundColor=none;" vertex="1" parent="1">
                    <mxGeometry x="415.72" y="346.02000000000004" width="38" height="29" as="geometry"/>
                </mxCell>
                <mxCell id="126" value="" style="endArrow=classic;html=1;strokeColor=#000000;fontColor=#000000;strokeWidth=2;" edge="1" parent="1">
                    <mxGeometry width="50" height="50" relative="1" as="geometry">
                        <mxPoint x="600.66" y="492.42999999999995" as="sourcePoint"/>
                        <mxPoint x="680.66" y="492.42999999999995" as="targetPoint"/>
                    </mxGeometry>
                </mxCell>
                <mxCell id="127" value="s.empty()" style="text;html=1;strokeColor=none;fillColor=none;align=center;verticalAlign=middle;whiteSpace=wrap;rounded=0;fontColor=#000000;" vertex="1" parent="1">
                    <mxGeometry x="606.66" y="472.42999999999995" width="60" height="20" as="geometry"/>
                </mxCell>
                <mxCell id="128" value="false" style="text;html=1;strokeColor=#66FFFF;fillColor=none;align=center;verticalAlign=middle;whiteSpace=wrap;rounded=0;fontColor=#000000;fontStyle=1;fontSize=14;labelBorderColor=none;strokeWidth=3;" vertex="1" parent="1">
                    <mxGeometry x="686.66" y="477.15999999999997" width="54" height="30" as="geometry"/>
                </mxCell>
                <mxCell id="129" value="" style="endArrow=none;html=1;strokeColor=#000000;fontColor=#000000;strokeWidth=2;" edge="1" parent="1">
                    <mxGeometry width="50" height="50" relative="1" as="geometry">
                        <mxPoint x="111.66" y="623.8399999999999" as="sourcePoint"/>
                        <mxPoint x="111.66" y="593.8399999999999" as="targetPoint"/>
                    </mxGeometry>
                </mxCell>
                <mxCell id="130" value="" style="endArrow=none;html=1;strokeColor=#000000;fontColor=#000000;strokeWidth=2;" edge="1" parent="1">
                    <mxGeometry width="50" height="50" relative="1" as="geometry">
                        <mxPoint x="151.66" y="623.8399999999999" as="sourcePoint"/>
                        <mxPoint x="151.66" y="593.8399999999999" as="targetPoint"/>
                    </mxGeometry>
                </mxCell>
                <mxCell id="131" value="" style="endArrow=none;html=1;strokeColor=#000000;fontColor=#000000;strokeWidth=2;" edge="1" parent="1">
                    <mxGeometry width="50" height="50" relative="1" as="geometry">
                        <mxPoint x="111.66" y="623.8399999999999" as="sourcePoint"/>
                        <mxPoint x="151.66" y="623.8399999999999" as="targetPoint"/>
                    </mxGeometry>
                </mxCell>
                <mxCell id="132" value="1" style="text;html=1;strokeColor=none;fillColor=#66FFFF;align=center;verticalAlign=middle;whiteSpace=wrap;rounded=0;fontColor=#000000;fontStyle=1;labelBackgroundColor=none;" vertex="1" parent="1">
                    <mxGeometry x="112.66" y="594.07" width="38" height="29" as="geometry"/>
                </mxCell>
                <mxCell id="133" value="" style="endArrow=classic;html=1;strokeColor=#000000;fontColor=#000000;strokeWidth=2;" edge="1" parent="1">
                    <mxGeometry width="50" height="50" relative="1" as="geometry">
                        <mxPoint x="164.66" y="604" as="sourcePoint"/>
                        <mxPoint x="244.66" y="604" as="targetPoint"/>
                    </mxGeometry>
                </mxCell>
                <mxCell id="134" value="s.pop()" style="text;html=1;strokeColor=none;fillColor=none;align=center;verticalAlign=middle;whiteSpace=wrap;rounded=0;fontColor=#000000;" vertex="1" parent="1">
                    <mxGeometry x="170.66" y="584" width="60" height="20" as="geometry"/>
                </mxCell>
                <mxCell id="137" value="s" style="text;html=1;strokeColor=none;fillColor=none;align=center;verticalAlign=middle;whiteSpace=wrap;rounded=0;fontColor=#000000;fontStyle=1;fontSize=18;labelBorderColor=none;strokeWidth=3;" vertex="1" parent="1">
                    <mxGeometry x="246.66" y="589" width="30" height="30" as="geometry"/>
                </mxCell>
                <mxCell id="138" value="" style="endArrow=classic;html=1;strokeColor=#000000;fontColor=#000000;strokeWidth=2;" edge="1" parent="1">
                    <mxGeometry width="50" height="50" relative="1" as="geometry">
                        <mxPoint x="280.66" y="604" as="sourcePoint"/>
                        <mxPoint x="360.66" y="604" as="targetPoint"/>
                    </mxGeometry>
                </mxCell>
                <mxCell id="139" value="s.empty()" style="text;html=1;strokeColor=none;fillColor=none;align=center;verticalAlign=middle;whiteSpace=wrap;rounded=0;fontColor=#000000;" vertex="1" parent="1">
                    <mxGeometry x="286.66" y="584" width="60" height="20" as="geometry"/>
                </mxCell>
                <mxCell id="140" value="true" style="text;html=1;strokeColor=#66FFFF;fillColor=none;align=center;verticalAlign=middle;whiteSpace=wrap;rounded=0;fontColor=#000000;fontStyle=1;fontSize=14;labelBorderColor=none;strokeWidth=3;" vertex="1" parent="1">
                    <mxGeometry x="371.66" y="589" width="54" height="30" as="geometry"/>
                </mxCell>
                <mxCell id="141" value="s" style="text;html=1;strokeColor=none;fillColor=none;align=center;verticalAlign=middle;whiteSpace=wrap;rounded=0;fontColor=#000000;fontStyle=1;fontSize=18;labelBorderColor=none;strokeWidth=3;" vertex="1" parent="1">
                    <mxGeometry x="551.66" y="591.5" width="30" height="30" as="geometry"/>
                </mxCell>
                <mxCell id="142" value="" style="endArrow=classic;html=1;strokeColor=#000000;fontColor=#000000;strokeWidth=2;" edge="1" parent="1">
                    <mxGeometry width="50" height="50" relative="1" as="geometry">
                        <mxPoint x="585.66" y="606.5" as="sourcePoint"/>
                        <mxPoint x="665.66" y="606.5" as="targetPoint"/>
                    </mxGeometry>
                </mxCell>
                <mxCell id="143" value="s.size()" style="text;html=1;strokeColor=none;fillColor=none;align=center;verticalAlign=middle;whiteSpace=wrap;rounded=0;fontColor=#000000;" vertex="1" parent="1">
                    <mxGeometry x="591.66" y="586.5" width="60" height="20" as="geometry"/>
                </mxCell>
                <mxCell id="145" value="0" style="text;html=1;strokeColor=#66FFFF;fillColor=none;align=center;verticalAlign=middle;whiteSpace=wrap;rounded=0;fontColor=#000000;fontStyle=1;fontSize=14;labelBorderColor=none;strokeWidth=3;" vertex="1" parent="1">
                    <mxGeometry x="676.66" y="591.5" width="30" height="30" as="geometry"/>
                </mxCell>
                <mxCell id="146" value="s" style="text;html=1;strokeColor=none;fillColor=none;align=center;verticalAlign=middle;whiteSpace=wrap;rounded=0;fontColor=#000000;fontStyle=1;fontSize=12;labelBorderColor=none;strokeWidth=3;" vertex="1" parent="1">
                    <mxGeometry x="263" y="220" width="30" height="19" as="geometry"/>
                </mxCell>
                <mxCell id="147" value="s" style="text;html=1;strokeColor=none;fillColor=none;align=center;verticalAlign=middle;whiteSpace=wrap;rounded=0;fontColor=#000000;fontStyle=1;fontSize=12;labelBorderColor=none;strokeWidth=3;" vertex="1" parent="1">
                    <mxGeometry x="420" y="219" width="30" height="19" as="geometry"/>
                </mxCell>
                <mxCell id="148" value="s" style="text;html=1;strokeColor=none;fillColor=none;align=center;verticalAlign=middle;whiteSpace=wrap;rounded=0;fontColor=#000000;fontStyle=1;fontSize=12;labelBorderColor=none;strokeWidth=3;" vertex="1" parent="1">
                    <mxGeometry x="570" y="220" width="30" height="19" as="geometry"/>
                </mxCell>
                <mxCell id="149" value="s" style="text;html=1;strokeColor=none;fillColor=none;align=center;verticalAlign=middle;whiteSpace=wrap;rounded=0;fontColor=#000000;fontStyle=1;fontSize=12;labelBorderColor=none;strokeWidth=3;" vertex="1" parent="1">
                    <mxGeometry x="116.00000000000003" y="376.07" width="30" height="19" as="geometry"/>
                </mxCell>
                <mxCell id="150" value="s" style="text;html=1;strokeColor=none;fillColor=none;align=center;verticalAlign=middle;whiteSpace=wrap;rounded=0;fontColor=#000000;fontStyle=1;fontSize=12;labelBorderColor=none;strokeWidth=3;" vertex="1" parent="1">
                    <mxGeometry x="265" y="376.07" width="30" height="19" as="geometry"/>
                </mxCell>
                <mxCell id="152" value="s" style="text;html=1;strokeColor=none;fillColor=none;align=center;verticalAlign=middle;whiteSpace=wrap;rounded=0;fontColor=#000000;fontStyle=1;fontSize=12;labelBorderColor=none;strokeWidth=3;" vertex="1" parent="1">
                    <mxGeometry x="419.72" y="376.07" width="30" height="19" as="geometry"/>
                </mxCell>
                <mxCell id="153" value="s" style="text;html=1;strokeColor=none;fillColor=none;align=center;verticalAlign=middle;whiteSpace=wrap;rounded=0;fontColor=#000000;fontStyle=1;fontSize=12;labelBorderColor=none;strokeWidth=3;" vertex="1" parent="1">
                    <mxGeometry x="571" y="376.07" width="30" height="19" as="geometry"/>
                </mxCell>
                <mxCell id="154" value="s" style="text;html=1;strokeColor=none;fillColor=none;align=center;verticalAlign=middle;whiteSpace=wrap;rounded=0;fontColor=#000000;fontStyle=1;fontSize=12;labelBorderColor=none;strokeWidth=3;" vertex="1" parent="1">
                    <mxGeometry x="116.32" y="513" width="30" height="19" as="geometry"/>
                </mxCell>
                <mxCell id="155" value="s" style="text;html=1;strokeColor=none;fillColor=none;align=center;verticalAlign=middle;whiteSpace=wrap;rounded=0;fontColor=#000000;fontStyle=1;fontSize=12;labelBorderColor=none;strokeWidth=3;" vertex="1" parent="1">
                    <mxGeometry x="397.66" y="510.73" width="30" height="19" as="geometry"/>
                </mxCell>
                <mxCell id="156" value="s" style="text;html=1;strokeColor=none;fillColor=none;align=center;verticalAlign=middle;whiteSpace=wrap;rounded=0;fontColor=#000000;fontStyle=1;fontSize=12;labelBorderColor=none;strokeWidth=3;" vertex="1" parent="1">
                    <mxGeometry x="552.66" y="513" width="30" height="19" as="geometry"/>
                </mxCell>
                <mxCell id="157" value="s" style="text;html=1;strokeColor=none;fillColor=none;align=center;verticalAlign=middle;whiteSpace=wrap;rounded=0;fontColor=#000000;fontStyle=1;fontSize=12;labelBorderColor=none;strokeWidth=3;" vertex="1" parent="1">
                    <mxGeometry x="116.32" y="623.0699999999999" width="30" height="19" as="geometry"/>
                </mxCell>
                <mxCell id="159" value="" style="endArrow=none;dashed=1;html=1;fontSize=12;fontColor=#66FFFF;strokeColor=#808080;" edge="1" parent="1">
                    <mxGeometry width="50" height="50" relative="1" as="geometry">
                        <mxPoint x="-21.84" y="256" as="sourcePoint"/>
                        <mxPoint x="827.16" y="256" as="targetPoint"/>
                    </mxGeometry>
                </mxCell>
                <mxCell id="160" value="" style="endArrow=none;dashed=1;html=1;fontSize=12;fontColor=#66FFFF;strokeColor=#808080;" edge="1" parent="1">
                    <mxGeometry width="50" height="50" relative="1" as="geometry">
                        <mxPoint x="-12" y="421" as="sourcePoint"/>
                        <mxPoint x="837" y="421" as="targetPoint"/>
                    </mxGeometry>
                </mxCell>
                <mxCell id="161" value="" style="endArrow=none;dashed=1;html=1;fontSize=12;fontColor=#66FFFF;strokeColor=#808080;" edge="1" parent="1">
                    <mxGeometry width="50" height="50" relative="1" as="geometry">
                        <mxPoint y="557" as="sourcePoint"/>
                        <mxPoint x="849" y="557" as="targetPoint"/>
                    </mxGeometry>
                </mxCell>
                <mxCell id="164" value="&lt;font color=&quot;#ffffff&quot;&gt;s.top()&lt;/font&gt;" style="text;html=1;strokeColor=none;fillColor=none;align=center;verticalAlign=middle;whiteSpace=wrap;rounded=0;fontColor=#000000;" vertex="1" parent="1">
                    <mxGeometry x="556" y="83" width="60" height="20" as="geometry"/>
                </mxCell>
                <mxCell id="165" value="&lt;font color=&quot;#ffffff&quot;&gt;s.top()&lt;/font&gt;" style="text;html=1;strokeColor=none;fillColor=none;align=center;verticalAlign=middle;whiteSpace=wrap;rounded=0;fontColor=#000000;" vertex="1" parent="1">
                    <mxGeometry x="101.66000000000003" y="656" width="60" height="20" as="geometry"/>
                </mxCell>
            </root>
        </mxGraphModel>
    </diagram>
</mxfile>